<svg xmlns="http://www.w3.org/2000/svg" width="16" height="16" fill="currentColor" class="bi bi-alterainvest" viewBox="0 0 16 16">
  <path d="M8.027.047c1.215 0 2.352.281 3.371.805a6.3 6.3 0 0 0-1.097.363c-1.492.805-3.02 2.414-4.547 4.87-.39-.042-.668-.042-.902-.042-1.02 0-1.88.203-2.547.644-.664.446-1.02.97-1.02 1.614 0 .32.121.562.317.761.195.165.468.286.742.286.277 0 .511-.082.707-.203s.273-.282.273-.442c0-.164-.039-.324-.078-.445s-.117-.16-.156-.16c.117-.32.351-.524.703-.684a4 4 0 0 1 1.336-.242A20 20 0 0 0 4.07 9.266c-.824 1.812-1.332 3.34-1.492 4.468A8.04 8.04 0 0 1 .23 8.016C.31 3.59 3.754.046 8.027.046m5.016 1.933-2.55 12.32h-2.51L9.32 7.778a7.3 7.3 0 0 0-2.351-.644c-1.059 2.375-1.766 4.59-2.117 6.562a7 7 0 0 0-.157 1.45 7.64 7.64 0 0 0 3.328.765c4.274 0 7.723-3.543 7.723-7.933-.039-2.415-1.059-4.547-2.703-5.997M7.32 6.328q1.179.242 2.117.602l1.02-4.871c-.98.562-2 1.972-3.137 4.27m0 0"/>
</svg>