<svg xmlns="http://www.w3.org/2000/svg" width="16" height="16" fill="currentColor" class="bi bi-default" viewBox="0 0 16 16">
  <path d="M6.64.32a8 8 0 0 1 3.37.14A7.84 7.84 0 0 1 15.2 5a7.84 7.84 0 0 1-4.53 10.34 7.85 7.85 0 0 1-7.84-1.49 7.77 7.77 0 0 1-.42-11.29A7.8 7.8 0 0 1 6.35.38c.1-.02.21-.05.32-.06zm.14 3.43c-.1.01-.22 0-.33.02l-.14.01c-.1.01-.22 0-.33.03-.07.02-.15 0-.23.02-.06.02-.13.02-.2.02-.07.03-.16.04-.24.05-.06.03-.15-.01-.2.04-.06 0-.14 0-.2.03h-.07V12c.05 0 .1 0 .14.03l.12.01.06.03h.09c.05.04.13.03.19.04.07.02.15.02.22.03.05.02.1.02.14.02l.1.03.21.01c.1.03.2.03.3.03.18.04.35.02.52.04l.27.01c.1.02.2 0 .29.01h.24l.13-.02c.14-.02.3 0 .44-.02.12 0 .24-.03.35-.02a.9.9 0 0 1 .27-.03l.04-.03c.07-.01.15.01.21-.03.06-.01.14 0 .2-.03.04 0 .08 0 .11-.04.05 0 .1 0 .12-.03l.17-.04v-.02c.03 0 .09 0 .1-.03h.08v-.04H10v-.03h.05l.08-.05h.02l.04-.03h.03a.3.3 0 0 1 .07-.04v-.02h.04c.02-.04.05-.04.08-.07h.04v-.03h.04v-.02c.06-.03.1-.06.14-.1l.03-.01.19-.17c.07-.09.16-.16.21-.26h.02l.04-.06v-.04h.02l.05-.07.02-.01v-.06h.03v-.05l.04-.02v-.04h.01l.02-.07h.01l.08-.24h.02v-.1h.03c0-.04 0-.1.03-.14l.01-.11c.04-.1.02-.2.04-.29.02-.12 0-.24 0-.35l-.01-.24a1 1 0 0 0-.03-.17c0-.05 0-.1-.04-.14v-.09h-.03V8.7c-.04-.01-.03-.06-.03-.1-.03-.01-.03-.05-.06-.08v-.05h-.02a.4.4 0 0 1-.02-.06h-.01v-.04c-.04-.01-.04-.05-.04-.08h-.02l-.01-.03a.2.2 0 0 1-.04-.06h-.01l-.03-.06-.07-.09-.05-.07-.17-.16a.1.1 0 0 1-.05-.03h-.02v-.03a1 1 0 0 0-.12-.06v-.03h-.05v-.03l-.07-.02.05-.01.21-.25h.02V7.3l.07-.07V7.2h.03v-.05h.02v-.03h.01v-.04h.02v-.02l.02-.04H11v-.05c.04-.02.03-.06.04-.1h.02V6.8h.03c.02-.04-.01-.1.04-.13v-.1c.05-.07.02-.15.03-.22.02-.1.02-.2.02-.3 0-.03 0-.05-.02-.07l-.01-.18v-.01c-.03-.07 0-.14-.05-.2V5.5l-.03-.04-.01-.05a1 1 0 0 1-.02-.09h-.02l-.01-.04-.03-.08c-.03-.02-.03-.05-.03-.08h-.03v-.04l-.03-.02v-.03l-.04-.06h-.03v-.04l-.04-.05h-.02v-.03l-.04-.06c-.1-.08-.15-.2-.26-.26l-.17-.16h-.02v-.02l-.09-.05v-.02h-.06v-.03h-.04l-.06-.04V4.2h-.06v-.04h-.05v-.03h-.07V4.1c-.05 0-.1-.02-.16-.04v-.02l-.08-.01a.4.4 0 0 0-.17-.05v-.02c-.12 0-.23-.07-.35-.05l.12-.01-.11-.01c-.05-.05-.13-.02-.19-.04-.06-.03-.12-.02-.18-.02-.11-.05-.24-.02-.36-.05-.09-.02-.18-.01-.27-.02-.13-.02-.25 0-.38-.02h-.5c-.14.02-.28 0-.43.02Zm0 0"/>
  <path d="M7.21 5.74h.8c.09.03.18.01.26.01l.07.04h.1l.02.03h.07l.02.03h.05l.02.03h.04v.03h.05v.03h.04l.04.05V6l.07.08v.07h.03v.26h-.03c0 .04.01.09-.03.1v.04H8.8a.4.4 0 0 0-.04.09c-.02 0-.04.02-.05.04h-.04v.04H8.6v.03l-.06.01v.03l-.15.01c-.07.01-.13 0-.19.04h-.07c-.34.05-.68.02-1.02.04V5.75zm-.09 3.04h.67l.51.03c.1.02.2.04.3.03v.03h.07l.11.05h.06v.03h.06v.03h.03l.06.06.06.04v.03h.03v.03l.06.06c0 .03 0 .06.03.08l.02.08v.24a.35.35 0 0 0-.03.15h-.03c0 .03 0 .05-.02.07l-.07.11h-.02v.03l-.1.08a.1.1 0 0 0-.07.03l-.18.06h-.08v.04h-.1l-.04.03c-.11-.01-.21.03-.32.03l-.21.02.04.01c-.17 0-.34.01-.51-.01-.05 0-.1 0-.13-.02h-.2zm0 0"/>
</svg>