<svg xmlns="http://www.w3.org/2000/svg" width="16" height="16" fill="currentColor" class="bi bi-karkaul" viewBox="0 0 16 16">
  <path d="M5.84.512c-.527.176-.992.351-1.024.398-.046.035.207.93.543 1.985.434 1.328.688 1.89.832 1.84.114-.048.688-.176 1.266-.27.656-.113 1.023-.242.977-.367C8.398 4 8.098 3.07 7.777 2.03 7.441.961 7.105.161 6.992.176c-.113 0-.625.16-1.152.336m6.719 2.945c-.782.574-1.504 1.102-1.582 1.184-.145.144.863 1.793 1.199 2.015.129.063 3.504-2.273 3.504-2.433 0-.192-1.375-1.825-1.52-1.825-.082.016-.8.48-1.601 1.059M.64 8v1.281h3.04c1.68 0 3.039.031 3.039.063 0 .047-.43 1.312-.957 2.832-.532 1.52-.914 2.816-.852 2.879.145.129 1.922.785 2.13.785.128 0 3.038-8.543 3.038-8.93 0-.14-1.246-.191-4.719-.191H.641Zm10.75 1.969c-.46.465-.831.879-.831.941 0 .13 3.472 2.692 3.648 2.692.145 0 1.473-1.68 1.473-1.875 0-.094-2.575-2.047-3.282-2.48-.109-.063-.527.241-1.007.722m0 0"/>
</svg>