<svg xmlns="http://www.w3.org/2000/svg" width="16" height="16" fill="currentColor" class="bi bi-karkaul" viewBox="0 0 16 16">
  <path d="M4.82 1.03C5.6.82 6.36.59 7.12.36c.43 1.34.79 2.7 1.2 4.05l-2.31.67zm6.03 3.57c.93-.68 1.89-1.32 2.8-2.03.47.67.97 1.32 1.4 2.01-1.15.79-2.29 1.6-3.4 2.42-.48-.64-.95-1.28-1.38-1.94.12-.22.38-.31.58-.47ZM.48 6.75h9.64c-.82 2.34-1.57 4.7-2.35 7.05-.18.68-.38 1.35-.64 2-.78-.34-1.65-.45-2.4-.86l2.02-5.78H.48zm11.14 2.06c.29.05.5.26.74.4l2.91 1.86c-.43.67-.88 1.34-1.27 2.04a.9.9 0 0 1-.41-.17c-1.08-.71-2.18-1.38-3.26-2.09.44-.67.87-1.35 1.3-2.04Zm0 0"/>
</svg>