<svg xmlns="http://www.w3.org/2000/svg" width="16" height="16" fill="currentColor" class="bi bi-reinvest" viewBox="0 0 16 16">
  <path d="M7.414.535c.356-.015.711 0 1.066-.008a7.5 7.5 0 0 1 3.313 1.024 7.5 7.5 0 0 1 3.426 4.465c.136.48.207.976.254 1.472v.977a7.4 7.4 0 0 1-1.27 3.719 7.5 7.5 0 0 1-4.07 2.992c-.531.16-1.082.25-1.637.297H7.52a7.6 7.6 0 0 1-2.774-.73 7.7 7.7 0 0 1-2-1.411A7.5 7.5 0 0 1 .641 9.359a9 9 0 0 1-.114-.863v-.992A7.7 7.7 0 0 1 1 5.352a7.5 7.5 0 0 1 2.496-3.329A7.53 7.53 0 0 1 7.414.535M5.148 3.133A5.7 5.7 0 0 0 3.141 5.14a5.8 5.8 0 0 0-.82 3.097c.023.614.12 1.23.335 1.809.219.637.563 1.226.992 1.746a5.8 5.8 0 0 0 3.047 1.93c.336.066.672.156 1.016.148 1.64.14 3.312-.496 4.473-1.656.086-.11.203-.192.285-.305a5.8 5.8 0 0 0 1.39-3.172c.055-.64.043-1.293-.113-1.922a5.78 5.78 0 0 0-4.07-4.28c-.219-.048-.43-.126-.653-.138a5.75 5.75 0 0 0-3.875.735Zm0 0"/>
  <path d="M4.414 3.902H9.22a.2.2 0 0 1-.024.035h.075a.24.24 0 0 0 .144.051c.043.047.117.043.176.067.023.035.074.035.113.047.047.046.117.066.176.097.02.028.055.04.086.047l.039.035c.059.012.094.067.152.078l.024.04c.008 0 .023.003.035.003q.064.07.144.118c.036.039.079.07.114.113q.063.048.113.11c.09.077.144.19.226.277a.1.1 0 0 1 .004.035l.043.023c.055.152.157.29.184.453l.027.028c.004.046.016.097.02.144.058.067.035.188.047.277.008.004.023.02.031.024v.559l-.031-.024c.008.102-.02.2-.02.3l-.027.016q-.013.08-.02.16c-.05.028-.03.098-.05.145-.04.043-.047.106-.07.16a.03.03 0 0 0 .007.016.3.3 0 0 0-.05.094c-.036.027-.04.074-.071.101-.004.008-.004.024-.008.032a3 3 0 0 1-.308.382c-.024.028-.055.051-.082.078l-.047.051c-.098.067-.192.137-.29.207-.101.063-.214.106-.316.16-.047.012-.094.02-.129.051a.6.6 0 0 1-.14.02c.117.136.199.297.316.425.035.079.09.149.152.208l-.015.015q.042.014.054.063c.098.117.168.265.278.37a.1.1 0 0 1 .004.036q.02.012.043.023c.007.043.023.086.066.102 0 .008.004.02.004.027q.034.031.062.063v.035c.118.105.18.258.286.371 0 .012.004.027.004.035l.046.024v.039c.043.02.063.058.07.105.009-.008.02-.023.028-.027l-.012.031a.2.2 0 0 1 .036.047c.105.121.175.27.289.387a.12.12 0 0 0 .066.09c.004.007.004.023.004.03.043.044.07.09.11.13l.003.03c.067.052.082.145.156.184v.07H9.832c-.023-.042-.043-.085-.086-.109 0-.007-.004-.023-.004-.035l-.039-.023c-.012-.04-.027-.082-.07-.098 0-.008 0-.027-.004-.035a1 1 0 0 0-.074-.078l.015-.016a.08.08 0 0 1-.058-.062c-.203-.274-.39-.563-.598-.832l-.004-.032c-.156-.156-.246-.375-.398-.53v-.036l-.043-.023c-.008-.043-.024-.086-.067-.102 0-.008-.004-.023-.004-.031a.3.3 0 0 1-.066-.098l-.043-.023-.004-.035c-.152-.16-.242-.375-.394-.532 0-.008-.004-.023-.004-.03-.032-.036-.07-.071-.063-.122V7.477c.028-.004.067 0 .074-.036.32.008.641-.035.961-.035l.024-.027a.25.25 0 0 0 .164-.047c.039-.008.086-.012.113-.043.14-.07.254-.176.352-.289a.6.6 0 0 1 .066-.094c.004-.023.016-.043.04-.05l-.02-.016c.007-.008.023-.02.03-.027.017-.086.083-.157.071-.247.004-.007.02-.02.028-.027.043-.32.02-.668-.176-.937-.043-.094-.14-.145-.2-.223l-.062-.024a.16.16 0 0 0-.078-.05.65.65 0 0 0-.399-.106c.008-.008.016-.023.024-.031H5.953q-.04-.002-.074-.016c-.066-.09-.168-.144-.254-.215a1.5 1.5 0 0 0-.258-.207c-.113-.113-.242-.207-.367-.304a2 2 0 0 0-.254-.207 1.2 1.2 0 0 0-.262-.207.2.2 0 0 0-.023-.043h-.047Zm0 0"/>
  <path d="m6.98 5.633.075-.024c.004 1.75 0 3.496 0 5.246-.086.063-.121.18-.2.258-.035.02-.043.059-.058.094-.102.074-.137.215-.234.29 0 .01-.004.026-.004.034q-.03.03-.063.059v.031c-.101.078-.137.215-.238.293l-.024.063c-.097.078-.132.207-.226.289a.4.4 0 0 1-.07.093l-.004.032c-.067.046-.094.136-.157.191q.001.03-.004.059-.047.001-.101-.004l.039-.055c.004-1.7 0-3.395 0-5.094.004-.066-.012-.136.02-.199.074-.05.101-.144.164-.207.074-.062.105-.164.183-.227l.004-.03c.066-.044.09-.13.156-.18 0-.004.004-.02.004-.028.067-.054.106-.14.164-.207.121-.137.211-.305.344-.43 0-.011.004-.027.004-.035.062-.039.078-.12.14-.164 0-.008 0-.023.004-.035a.14.14 0 0 0 .082-.113m0 0"/>
</svg>
