<svg xmlns="http://www.w3.org/2000/svg" width="16" height="16" fill="currentColor" class="bi bi-tenchat" viewBox="0 0 16 16">
  <path d="M3.078 1.52c2.774-.778 5.715-.875 8.535-.336.57.129 1.153.23 1.707.437.903.352 1.594 1.2 1.801 2.176a16.4 16.4 0 0 1 .145 5.422c-.067.48-.13.969-.313 1.418-.355.843-1.086 1.515-1.95 1.742-.19.062-.464.094-.51.344-.052.875.03 1.761-.04 2.632-.187.094-.332-.074-.465-.187-.68-.602-1.367-1.188-2.043-1.793-.258-.254-.617-.414-.98-.36a8.4 8.4 0 0 1-1.77.008 18 18 0 0 1-3.261-.43c-.512-.132-1.051-.214-1.512-.491-.55-.317-1-.82-1.258-1.41-.23-.547-.289-1.145-.367-1.727-.16-1.113-.149-2.238-.082-3.36.082-.644.137-1.296.289-1.93.254-1.034 1.074-1.89 2.074-2.155m1.867 2.066a.41.41 0 0 0-.222.394c0 .493-.012.985.007 1.477 0 .211.196.375.395.363.453.012.902-.008 1.355.004.23-.008.47.192.438.446.008 1.3-.004 2.605.008 3.906-.012.226.183.445.406.43.523.007 1.047.003 1.566.003a.41.41 0 0 0 .426-.425V6.27a.423.423 0 0 1 .422-.446c.477-.015.953.012 1.426-.008.21-.003.371-.214.367-.425.004-.47.008-.938 0-1.41.004-.239-.2-.454-.434-.426-1.949 0-3.894.004-5.843 0-.106.004-.215-.008-.317.03m0 0"/>
</svg>