<svg xmlns="http://www.w3.org/2000/svg" width="16" height="16" fill="currentColor" class="bi bi-vkontakte" viewBox="0 0 16 16">
  <path d="M8.773 12.664c.407 0 .575-.273.57-.613-.023-1.278.473-1.965 1.372-1.067.992.993 1.195 1.68 2.402 1.68h2.133c.54 0 .75-.176.75-.445 0-.578-.945-1.594-1.75-2.336-1.125-1.043-1.176-1.07-.207-2.324C15.243 5.996 16.813 4 15.426 4H12.77c-.516 0-.551.29-.735.723-.664 1.562-1.926 3.59-2.402 3.28-.5-.323-.274-1.605-.235-3.507.012-.504.008-.848-.761-1.027a5.5 5.5 0 0 0-1.203-.137c-1.516 0-2.563.637-1.97.746 1.048.195.946 2.461.704 3.442-.426 1.703-2.023-1.348-2.691-2.872C3.317 4.285 3.27 4 2.695 4H.523C.195 4 0 4.105 0 4.344c0 .402 1.973 4.48 3.855 6.511 1.84 1.985 3.657 1.81 4.918 1.81m0 0"/>
</svg>