<svg xmlns="http://www.w3.org/2000/svg" width="16" height="16" fill="currentColor"
  class="bi bi-правильные.рф" viewBox="0 0 16 16">
  <path
    d="M3.063 15.297v.21h.207v-.21Zm-2.528 0H.328v.21h.207ZM.535.8V.59H.328V.8Zm2.528 0h.207V.59h-.208Zm0 1.062v.211h.207v-.21Zm-1.364 0v-.207h-.21v.207Zm0 12.375h-.21v.211h.21Zm1.364 0h.207v-.207h-.208Zm0 .852H.535v.418h2.528Zm-2.317.207V.8H.328v14.496Zm-.21-14.29h2.527V.59H.535ZM2.851.802v1.062h.418V.801Zm.21.855H1.7v.418h1.364Zm-1.574.207v12.375h.418V1.863ZM1.7 14.45h1.364v-.418H1.699Zm1.153-.21v1.058h.418v-1.059Zm12.586 1.148v.21h.207v-.21Zm-2.532 0h-.21v.21h.21Zm0-1.055v-.21h-.21v.21Zm1.367 0v.207h.211v-.207Zm0-12.379h.211v-.207h-.21Zm-1.367 0h-.21v.211h.21Zm0-1.062V.684h-.21V.89Zm2.531 0h.208V.684h-.207Zm0 14.289h-2.53v.418h2.53Zm-2.324.207v-1.055h-.418v1.055Zm-.207-.848h1.367v-.418h-1.367Zm1.578-.207V1.953h-.418v12.379Zm-.21-12.586h-1.368v.418h1.367Zm-1.16.207V.891h-.419v1.062Zm-.208-.855h2.531V.684h-2.53Zm2.32-.207v14.496h.419V.89Zm0 0"/>
</svg>
